<svg xmlns="http://www.w3.org/2000/svg" viewBox="0 0 200 200" fill="none"><defs><radialGradient id="core" cx="50%" cy="42%" r="60%"><stop offset="0%" stop-color="#EDA323" stop-opacity="0.20"/><stop offset="55%" stop-color="#EDA323" stop-opacity="0.06"/><stop offset="100%" stop-color="#EDA323" stop-opacity="0"/></radialGradient><linearGradient id="ring" x1="0" y1="0" x2="0" y2="200" gradientUnits="userSpaceOnUse"><stop offset="0%" stop-color="#F6C760"/><stop offset="50%" stop-color="#EDA323"/><stop offset="100%" stop-color="#9A6A12"/></linearGradient></defs><circle cx="100" cy="100" r="86" fill="url(#core)"/><g><line x1="134.0" y1="100.0" x2="166.0" y2="100.0" stroke="#EDA323" stroke-opacity="0.1" stroke-width="1"/><line x1="139.7" y1="105.2" x2="159.5" y2="107.8" stroke="#EDA323" stroke-opacity="0.05" stroke-width="1"/><line x1="132.8" y1="108.8" x2="163.8" y2="117.1" stroke="#EDA323" stroke-opacity="0.1" stroke-width="1"/><line x1="137.0" y1="115.3" x2="155.4" y2="123.0" stroke="#EDA323" stroke-opacity="0.05" stroke-width="1"/><line x1="129.4" y1="117.0" x2="157.2" y2="133.0" stroke="#EDA323" stroke-opacity="0.1" stroke-width="1"/><line x1="131.7" y1="124.4" x2="147.6" y2="136.5" stroke="#EDA323" stroke-opacity="0.05" stroke-width="1"/><line x1="124.0" y1="124.0" x2="146.7" y2="146.7" stroke="#EDA323" stroke-opacity="0.1" stroke-width="1"/><line x1="124.4" y1="131.7" x2="136.5" y2="147.6" stroke="#EDA323" stroke-opacity="0.05" stroke-width="1"/><line x1="117.0" y1="129.4" x2="133.0" y2="157.2" stroke="#EDA323" stroke-opacity="0.1" stroke-width="1"/><line x1="115.3" y1="137.0" x2="123.0" y2="155.4" stroke="#EDA323" stroke-opacity="0.05" stroke-width="1"/><line x1="108.8" y1="132.8" x2="117.1" y2="163.8" stroke="#EDA323" stroke-opacity="0.1" stroke-width="1"/><line x1="105.2" y1="139.7" x2="107.8" y2="159.5" stroke="#EDA323" stroke-opacity="0.05" stroke-width="1"/><line x1="100.0" y1="134.0" x2="100.0" y2="166.0" stroke="#EDA323" stroke-opacity="0.1" stroke-width="1"/><line x1="94.8" y1="139.7" x2="92.2" y2="159.5" stroke="#EDA323" stroke-opacity="0.05" stroke-width="1"/><line x1="91.2" y1="132.8" x2="82.9" y2="163.8" stroke="#EDA323" stroke-opacity="0.1" stroke-width="1"/><line x1="84.7" y1="137.0" x2="77.0" y2="155.4" stroke="#EDA323" stroke-opacity="0.05" stroke-width="1"/><line x1="83.0" y1="129.4" x2="67.0" y2="157.2" stroke="#EDA323" stroke-opacity="0.1" stroke-width="1"/><line x1="75.6" y1="131.7" x2="63.5" y2="147.6" stroke="#EDA323" stroke-opacity="0.05" stroke-width="1"/><line x1="76.0" y1="124.0" x2="53.3" y2="146.7" stroke="#EDA323" stroke-opacity="0.1" stroke-width="1"/><line x1="68.3" y1="124.4" x2="52.4" y2="136.5" stroke="#EDA323" stroke-opacity="0.05" stroke-width="1"/><line x1="70.6" y1="117.0" x2="42.8" y2="133.0" stroke="#EDA323" stroke-opacity="0.1" stroke-width="1"/><line x1="63.0" y1="115.3" x2="44.6" y2="123.0" stroke="#EDA323" stroke-opacity="0.05" stroke-width="1"/><line x1="67.2" y1="108.8" x2="36.2" y2="117.1" stroke="#EDA323" stroke-opacity="0.1" stroke-width="1"/><line x1="60.3" y1="105.2" x2="40.5" y2="107.8" stroke="#EDA323" stroke-opacity="0.05" stroke-width="1"/><line x1="66.0" y1="100.0" x2="34.0" y2="100.0" stroke="#EDA323" stroke-opacity="0.1" stroke-width="1"/><line x1="60.3" y1="94.8" x2="40.5" y2="92.2" stroke="#EDA323" stroke-opacity="0.05" stroke-width="1"/><line x1="67.2" y1="91.2" x2="36.2" y2="82.9" stroke="#EDA323" stroke-opacity="0.1" stroke-width="1"/><line x1="63.0" y1="84.7" x2="44.6" y2="77.0" stroke="#EDA323" stroke-opacity="0.05" stroke-width="1"/><line x1="70.6" y1="83.0" x2="42.8" y2="67.0" stroke="#EDA323" stroke-opacity="0.1" stroke-width="1"/><line x1="68.3" y1="75.6" x2="52.4" y2="63.5" stroke="#EDA323" stroke-opacity="0.05" stroke-width="1"/><line x1="76.0" y1="76.0" x2="53.3" y2="53.3" stroke="#EDA323" stroke-opacity="0.1" stroke-width="1"/><line x1="75.6" y1="68.3" x2="63.5" y2="52.4" stroke="#EDA323" stroke-opacity="0.05" stroke-width="1"/><line x1="83.0" y1="70.6" x2="67.0" y2="42.8" stroke="#EDA323" stroke-opacity="0.1" stroke-width="1"/><line x1="84.7" y1="63.0" x2="77.0" y2="44.6" stroke="#EDA323" stroke-opacity="0.05" stroke-width="1"/><line x1="91.2" y1="67.2" x2="82.9" y2="36.2" stroke="#EDA323" stroke-opacity="0.1" stroke-width="1"/><line x1="94.8" y1="60.3" x2="92.2" y2="40.5" stroke="#EDA323" stroke-opacity="0.05" stroke-width="1"/><line x1="100.0" y1="66.0" x2="100.0" y2="34.0" stroke="#EDA323" stroke-opacity="0.1" stroke-width="1"/><line x1="105.2" y1="60.3" x2="107.8" y2="40.5" stroke="#EDA323" stroke-opacity="0.05" stroke-width="1"/><line x1="108.8" y1="67.2" x2="117.1" y2="36.2" stroke="#EDA323" stroke-opacity="0.1" stroke-width="1"/><line x1="115.3" y1="63.0" x2="123.0" y2="44.6" stroke="#EDA323" stroke-opacity="0.05" stroke-width="1"/><line x1="117.0" y1="70.6" x2="133.0" y2="42.8" stroke="#EDA323" stroke-opacity="0.1" stroke-width="1"/><line x1="124.4" y1="68.3" x2="136.5" y2="52.4" stroke="#EDA323" stroke-opacity="0.05" stroke-width="1"/><line x1="124.0" y1="76.0" x2="146.7" y2="53.3" stroke="#EDA323" stroke-opacity="0.1" stroke-width="1"/><line x1="131.7" y1="75.6" x2="147.6" y2="63.5" stroke="#EDA323" stroke-opacity="0.05" stroke-width="1"/><line x1="129.4" y1="83.0" x2="157.2" y2="67.0" stroke="#EDA323" stroke-opacity="0.1" stroke-width="1"/><line x1="137.0" y1="84.7" x2="155.4" y2="77.0" stroke="#EDA323" stroke-opacity="0.05" stroke-width="1"/><line x1="132.8" y1="91.2" x2="163.8" y2="82.9" stroke="#EDA323" stroke-opacity="0.1" stroke-width="1"/><line x1="139.7" y1="94.8" x2="159.5" y2="92.2" stroke="#EDA323" stroke-opacity="0.05" stroke-width="1"/></g><circle cx="100" cy="100" r="95" stroke="url(#ring)" stroke-opacity="0.85" stroke-width="1.6"/><circle cx="100" cy="100" r="79" stroke="#EDA323" stroke-opacity="0.35" stroke-width="1"/><g><line x1="183.0" y1="100.0" x2="191.0" y2="100.0" stroke="#EDA323" stroke-opacity="0.55" stroke-width="1.4"/><line x1="182.7" y1="107.2" x2="190.7" y2="107.9" stroke="#EDA323" stroke-opacity="0.28" stroke-width="0.9"/><line x1="181.7" y1="114.4" x2="189.6" y2="115.8" stroke="#EDA323" stroke-opacity="0.28" stroke-width="0.9"/><line x1="180.2" y1="121.5" x2="187.9" y2="123.6" stroke="#EDA323" stroke-opacity="0.28" stroke-width="0.9"/><line x1="178.0" y1="128.4" x2="185.5" y2="131.1" stroke="#EDA323" stroke-opacity="0.28" stroke-width="0.9"/><line x1="175.2" y1="135.1" x2="182.5" y2="138.5" stroke="#EDA323" stroke-opacity="0.28" stroke-width="0.9"/><line x1="171.9" y1="141.5" x2="178.8" y2="145.5" stroke="#EDA323" stroke-opacity="0.55" stroke-width="1.4"/><line x1="168.0" y1="147.6" x2="174.5" y2="152.2" stroke="#EDA323" stroke-opacity="0.28" stroke-width="0.9"/><line x1="163.6" y1="153.4" x2="169.7" y2="158.5" stroke="#EDA323" stroke-opacity="0.28" stroke-width="0.9"/><line x1="158.7" y1="158.7" x2="164.3" y2="164.3" stroke="#EDA323" stroke-opacity="0.28" stroke-width="0.9"/><line x1="153.4" y1="163.6" x2="158.5" y2="169.7" stroke="#EDA323" stroke-opacity="0.28" stroke-width="0.9"/><line x1="147.6" y1="168.0" x2="152.2" y2="174.5" stroke="#EDA323" stroke-opacity="0.28" stroke-width="0.9"/><line x1="141.5" y1="171.9" x2="145.5" y2="178.8" stroke="#EDA323" stroke-opacity="0.55" stroke-width="1.4"/><line x1="135.1" y1="175.2" x2="138.5" y2="182.5" stroke="#EDA323" stroke-opacity="0.28" stroke-width="0.9"/><line x1="128.4" y1="178.0" x2="131.1" y2="185.5" stroke="#EDA323" stroke-opacity="0.28" stroke-width="0.9"/><line x1="121.5" y1="180.2" x2="123.6" y2="187.9" stroke="#EDA323" stroke-opacity="0.28" stroke-width="0.9"/><line x1="114.4" y1="181.7" x2="115.8" y2="189.6" stroke="#EDA323" stroke-opacity="0.28" stroke-width="0.9"/><line x1="107.2" y1="182.7" x2="107.9" y2="190.7" stroke="#EDA323" stroke-opacity="0.28" stroke-width="0.9"/><line x1="100.0" y1="183.0" x2="100.0" y2="191.0" stroke="#EDA323" stroke-opacity="0.55" stroke-width="1.4"/><line x1="92.8" y1="182.7" x2="92.1" y2="190.7" stroke="#EDA323" stroke-opacity="0.28" stroke-width="0.9"/><line x1="85.6" y1="181.7" x2="84.2" y2="189.6" stroke="#EDA323" stroke-opacity="0.28" stroke-width="0.9"/><line x1="78.5" y1="180.2" x2="76.4" y2="187.9" stroke="#EDA323" stroke-opacity="0.28" stroke-width="0.9"/><line x1="71.6" y1="178.0" x2="68.9" y2="185.5" stroke="#EDA323" stroke-opacity="0.28" stroke-width="0.9"/><line x1="64.9" y1="175.2" x2="61.5" y2="182.5" stroke="#EDA323" stroke-opacity="0.28" stroke-width="0.9"/><line x1="58.5" y1="171.9" x2="54.5" y2="178.8" stroke="#EDA323" stroke-opacity="0.55" stroke-width="1.4"/><line x1="52.4" y1="168.0" x2="47.8" y2="174.5" stroke="#EDA323" stroke-opacity="0.28" stroke-width="0.9"/><line x1="46.6" y1="163.6" x2="41.5" y2="169.7" stroke="#EDA323" stroke-opacity="0.28" stroke-width="0.9"/><line x1="41.3" y1="158.7" x2="35.7" y2="164.3" stroke="#EDA323" stroke-opacity="0.28" stroke-width="0.9"/><line x1="36.4" y1="153.4" x2="30.3" y2="158.5" stroke="#EDA323" stroke-opacity="0.28" stroke-width="0.9"/><line x1="32.0" y1="147.6" x2="25.5" y2="152.2" stroke="#EDA323" stroke-opacity="0.28" stroke-width="0.9"/><line x1="28.1" y1="141.5" x2="21.2" y2="145.5" stroke="#EDA323" stroke-opacity="0.55" stroke-width="1.4"/><line x1="24.8" y1="135.1" x2="17.5" y2="138.5" stroke="#EDA323" stroke-opacity="0.28" stroke-width="0.9"/><line x1="22.0" y1="128.4" x2="14.5" y2="131.1" stroke="#EDA323" stroke-opacity="0.28" stroke-width="0.9"/><line x1="19.8" y1="121.5" x2="12.1" y2="123.6" stroke="#EDA323" stroke-opacity="0.28" stroke-width="0.9"/><line x1="18.3" y1="114.4" x2="10.4" y2="115.8" stroke="#EDA323" stroke-opacity="0.28" stroke-width="0.9"/><line x1="17.3" y1="107.2" x2="9.3" y2="107.9" stroke="#EDA323" stroke-opacity="0.28" stroke-width="0.9"/><line x1="17.0" y1="100.0" x2="9.0" y2="100.0" stroke="#EDA323" stroke-opacity="0.55" stroke-width="1.4"/><line x1="17.3" y1="92.8" x2="9.3" y2="92.1" stroke="#EDA323" stroke-opacity="0.28" stroke-width="0.9"/><line x1="18.3" y1="85.6" x2="10.4" y2="84.2" stroke="#EDA323" stroke-opacity="0.28" stroke-width="0.9"/><line x1="19.8" y1="78.5" x2="12.1" y2="76.4" stroke="#EDA323" stroke-opacity="0.28" stroke-width="0.9"/><line x1="22.0" y1="71.6" x2="14.5" y2="68.9" stroke="#EDA323" stroke-opacity="0.28" stroke-width="0.9"/><line x1="24.8" y1="64.9" x2="17.5" y2="61.5" stroke="#EDA323" stroke-opacity="0.28" stroke-width="0.9"/><line x1="28.1" y1="58.5" x2="21.2" y2="54.5" stroke="#EDA323" stroke-opacity="0.55" stroke-width="1.4"/><line x1="32.0" y1="52.4" x2="25.5" y2="47.8" stroke="#EDA323" stroke-opacity="0.28" stroke-width="0.9"/><line x1="36.4" y1="46.6" x2="30.3" y2="41.5" stroke="#EDA323" stroke-opacity="0.28" stroke-width="0.9"/><line x1="41.3" y1="41.3" x2="35.7" y2="35.7" stroke="#EDA323" stroke-opacity="0.28" stroke-width="0.9"/><line x1="46.6" y1="36.4" x2="41.5" y2="30.3" stroke="#EDA323" stroke-opacity="0.28" stroke-width="0.9"/><line x1="52.4" y1="32.0" x2="47.8" y2="25.5" stroke="#EDA323" stroke-opacity="0.28" stroke-width="0.9"/><line x1="58.5" y1="28.1" x2="54.5" y2="21.2" stroke="#EDA323" stroke-opacity="0.55" stroke-width="1.4"/><line x1="64.9" y1="24.8" x2="61.5" y2="17.5" stroke="#EDA323" stroke-opacity="0.28" stroke-width="0.9"/><line x1="71.6" y1="22.0" x2="68.9" y2="14.5" stroke="#EDA323" stroke-opacity="0.28" stroke-width="0.9"/><line x1="78.5" y1="19.8" x2="76.4" y2="12.1" stroke="#EDA323" stroke-opacity="0.28" stroke-width="0.9"/><line x1="85.6" y1="18.3" x2="84.2" y2="10.4" stroke="#EDA323" stroke-opacity="0.28" stroke-width="0.9"/><line x1="92.8" y1="17.3" x2="92.1" y2="9.3" stroke="#EDA323" stroke-opacity="0.28" stroke-width="0.9"/><line x1="100.0" y1="17.0" x2="100.0" y2="9.0" stroke="#EDA323" stroke-opacity="0.55" stroke-width="1.4"/><line x1="107.2" y1="17.3" x2="107.9" y2="9.3" stroke="#EDA323" stroke-opacity="0.28" stroke-width="0.9"/><line x1="114.4" y1="18.3" x2="115.8" y2="10.4" stroke="#EDA323" stroke-opacity="0.28" stroke-width="0.9"/><line x1="121.5" y1="19.8" x2="123.6" y2="12.1" stroke="#EDA323" stroke-opacity="0.28" stroke-width="0.9"/><line x1="128.4" y1="22.0" x2="131.1" y2="14.5" stroke="#EDA323" stroke-opacity="0.28" stroke-width="0.9"/><line x1="135.1" y1="24.8" x2="138.5" y2="17.5" stroke="#EDA323" stroke-opacity="0.28" stroke-width="0.9"/><line x1="141.5" y1="28.1" x2="145.5" y2="21.2" stroke="#EDA323" stroke-opacity="0.55" stroke-width="1.4"/><line x1="147.6" y1="32.0" x2="152.2" y2="25.5" stroke="#EDA323" stroke-opacity="0.28" stroke-width="0.9"/><line x1="153.4" y1="36.4" x2="158.5" y2="30.3" stroke="#EDA323" stroke-opacity="0.28" stroke-width="0.9"/><line x1="158.7" y1="41.3" x2="164.3" y2="35.7" stroke="#EDA323" stroke-opacity="0.28" stroke-width="0.9"/><line x1="163.6" y1="46.6" x2="169.7" y2="41.5" stroke="#EDA323" stroke-opacity="0.28" stroke-width="0.9"/><line x1="168.0" y1="52.4" x2="174.5" y2="47.8" stroke="#EDA323" stroke-opacity="0.28" stroke-width="0.9"/><line x1="171.9" y1="58.5" x2="178.8" y2="54.5" stroke="#EDA323" stroke-opacity="0.55" stroke-width="1.4"/><line x1="175.2" y1="64.9" x2="182.5" y2="61.5" stroke="#EDA323" stroke-opacity="0.28" stroke-width="0.9"/><line x1="178.0" y1="71.6" x2="185.5" y2="68.9" stroke="#EDA323" stroke-opacity="0.28" stroke-width="0.9"/><line x1="180.2" y1="78.5" x2="187.9" y2="76.4" stroke="#EDA323" stroke-opacity="0.28" stroke-width="0.9"/><line x1="181.7" y1="85.6" x2="189.6" y2="84.2" stroke="#EDA323" stroke-opacity="0.28" stroke-width="0.9"/><line x1="182.7" y1="92.8" x2="190.7" y2="92.1" stroke="#EDA323" stroke-opacity="0.28" stroke-width="0.9"/></g></svg>